<svg xmlns="http://www.w3.org/2000/svg" width="81.503" height="15.196" viewBox="0 0 81.503 15.196">
  <path id="Path_69" data-name="Path 69" d="M1.241-.595v-2.03a3.943,3.943,0,0,0,.836.554A6.771,6.771,0,0,0,3.1-1.656a8.163,8.163,0,0,0,1.082.261,6.031,6.031,0,0,0,1,.092,3.936,3.936,0,0,0,2.374-.59,1.994,1.994,0,0,0,.784-1.7,1.993,1.993,0,0,0-.261-1.036,2.945,2.945,0,0,0-.723-.8,7.173,7.173,0,0,0-1.092-.7q-.631-.333-1.359-.7-.769-.39-1.436-.79A6.221,6.221,0,0,1,2.317-8.5a3.678,3.678,0,0,1-.774-1.092,3.38,3.38,0,0,1-.282-1.43A3.364,3.364,0,0,1,1.7-12.771,3.782,3.782,0,0,1,2.861-14,5.253,5.253,0,0,1,4.5-14.714a7.489,7.489,0,0,1,1.871-.236,7.171,7.171,0,0,1,3.168.523v1.938a5.743,5.743,0,0,0-3.343-.9,5.5,5.5,0,0,0-1.128.118,3.186,3.186,0,0,0-1,.385,2.226,2.226,0,0,0-.718.687,1.824,1.824,0,0,0-.277,1.025,2.111,2.111,0,0,0,.21.974,2.388,2.388,0,0,0,.62.749,6.179,6.179,0,0,0,1,.656q.59.318,1.359.7.79.39,1.5.82a6.843,6.843,0,0,1,1.241.954,4.238,4.238,0,0,1,.846,1.159,3.257,3.257,0,0,1,.313,1.456,3.692,3.692,0,0,1-.426,1.841A3.492,3.492,0,0,1,8.577-.646,5.016,5.016,0,0,1,6.911.036a9.125,9.125,0,0,1-1.989.21A8.106,8.106,0,0,1,4.061.19Q3.548.133,3.015.026A8.534,8.534,0,0,1,2-.241,3.143,3.143,0,0,1,1.241-.595ZM22.619-13.146H18.374V0H16.652V-13.146H12.417V-14.7h10.2ZM35.713,0H33.805L32.247-4.122H26.013L24.546,0H22.629l5.64-14.7h1.784Zm-4.03-5.67-2.307-6.265a6,6,0,0,1-.226-.984h-.041a5.492,5.492,0,0,1-.236.984L26.587-5.67ZM48.314-.615a8.624,8.624,0,0,1-4.061.861,6.548,6.548,0,0,1-5.024-2.02,7.454,7.454,0,0,1-1.887-5.3,7.812,7.812,0,0,1,2.123-5.7,7.2,7.2,0,0,1,5.383-2.174,8.631,8.631,0,0,1,3.466.6v1.835a7.028,7.028,0,0,0-3.486-.882A5.35,5.35,0,0,0,40.721-11.7a6.374,6.374,0,0,0-1.574,4.522A6.065,6.065,0,0,0,40.618-2.9,5.007,5.007,0,0,0,44.479-1.3a7.242,7.242,0,0,0,3.835-.984ZM62.381,0h-2.4L54.3-6.727a4.1,4.1,0,0,1-.39-.513h-.041V0H52.148V-14.7h1.723v6.911h.041a4.054,4.054,0,0,1,.39-.5L59.8-14.7h2.143L55.634-7.649Zm5.854,0H64.924V-14.7h3.312ZM82.744-12.007H78.55V0H75.228V-12.007H71.055v-2.7H82.744Z" transform="translate(-1.241 14.95)" fill="#fff"/>
</svg>
