<svg xmlns="http://www.w3.org/2000/svg" xmlns:xlink="http://www.w3.org/1999/xlink" width="75" height="75" viewBox="0 0 75 75">
  <defs>
    <filter id="Rectangle_180" x="0" y="0" width="75" height="75" filterUnits="userSpaceOnUse">
      <feOffset dy="3" input="SourceAlpha"/>
      <feGaussianBlur stdDeviation="3" result="blur"/>
      <feFlood flood-opacity="0.161"/>
      <feComposite operator="in" in2="blur"/>
      <feComposite in="SourceGraphic"/>
    </filter>
  </defs>
  <g id="Group_76" data-name="Group 76" transform="translate(-1718 -286)">
    <g id="Component_1_1" data-name="Component 1 – 1" transform="translate(1727 292)">
      <g transform="matrix(1, 0, 0, 1, -9, -6)" filter="url(#Rectangle_180)">
        <g id="Rectangle_180-2" data-name="Rectangle 180" transform="translate(9 6)" fill="#2c3e50" stroke="#f39c12" stroke-width="1">
          <rect width="57" height="57" rx="4" stroke="none"/>
          <rect x="0.5" y="0.5" width="56" height="56" rx="3.5" fill="none"/>
        </g>
      </g>
      <path id="Path_136" data-name="Path 136" d="M6.4,11.726a5.079,5.079,0,0,1-2.2.408,3.712,3.712,0,0,1-2.788-1.042A3.809,3.809,0,0,1,.4,8.315a4.069,4.069,0,0,1,1.141-3A3.992,3.992,0,0,1,4.5,4.169a5.54,5.54,0,0,1,1.9.285v1.67a3.369,3.369,0,0,0-1.762-.462,2.337,2.337,0,0,0-1.751.682,2.531,2.531,0,0,0-.666,1.848,2.483,2.483,0,0,0,.628,1.781,2.22,2.22,0,0,0,1.692.663A3.609,3.609,0,0,0,6.4,10.142ZM14.958,12H13.067l-.548-1.713H9.78L9.238,12H7.358l2.8-7.7h2.057ZM12.122,8.955l-.827-2.589a3.374,3.374,0,0,1-.129-.693h-.043a2.938,2.938,0,0,1-.134.671l-.838,2.61ZM25.136,12H23.422V7.392q0-.747.064-1.649h-.043A8.114,8.114,0,0,1,23.2,6.763L21.4,12H19.98L18.143,6.817A10.085,10.085,0,0,1,17.9,5.743h-.048q.07,1.139.07,2V12H16.359V4.3H18.9l1.574,4.565a6.428,6.428,0,0,1,.274,1.1h.032a11.087,11.087,0,0,1,.306-1.112L22.66,4.3h2.476Z" transform="translate(15.604 35)" fill="#fff"/>
      <g id="download-button" transform="translate(-19.25 4)">
        <g id="file-download" transform="translate(38.25)">
          <path id="Path_51" data-name="Path 51" d="M53.652,6.6h-4.4V0h-6.6V6.6h-4.4l7.7,7.7Zm-15.4,9.9v2.2h15.4V16.5Z" transform="translate(-36.25 5.797)" fill="#fff"/>
        </g>
      </g>
    </g>
  </g>
</svg>
