<svg id="business-and-finance" xmlns="http://www.w3.org/2000/svg" width="26.635" height="24.859" viewBox="0 0 26.635 24.859">
  <path id="Path_104" data-name="Path 104" d="M264,256h1.776v1.776H264Zm0,0" transform="translate(-249.351 -241.795)" fill="#fff"/>
  <path id="Path_105" data-name="Path 105" d="M24,160H47.971v1.776H24Zm0,0" transform="translate(-22.668 -151.122)" fill="#fff"/>
  <path id="Path_106" data-name="Path 106" d="M184,256h1.776v1.776H184Zm0,0" transform="translate(-173.79 -241.795)" fill="#fff"/>
  <path id="Path_107" data-name="Path 107" d="M64,128H83.532v.888H64Zm0,0" transform="translate(-60.449 -120.897)" fill="#fff"/>
  <path id="Path_108" data-name="Path 108" d="M120,0h.888V6.215H120Zm0,0" transform="translate(-113.341)" fill="#fff"/>
  <path id="Path_109" data-name="Path 109" d="M104,256h1.776v1.776H104Zm0,0" transform="translate(-98.229 -241.795)" fill="#fff"/>
  <path id="Path_110" data-name="Path 110" d="M176,384h7.1v.888H176Zm0,0" transform="translate(-166.234 -362.692)" fill="#fff"/>
  <path id="Path_111" data-name="Path 111" d="M176,352h7.1v.888H176Zm0,0" transform="translate(-166.234 -332.468)" fill="#fff"/>
  <path id="Path_112" data-name="Path 112" d="M344,256h1.776v1.776H344Zm0,0" transform="translate(-324.912 -241.795)" fill="#fff"/>
  <path id="Path_113" data-name="Path 113" d="M23.971,220.43V208H2.663v12.43H0v.888H26.635v-.888ZM18.2,210.22a.444.444,0,0,1,.444-.444h2.663a.444.444,0,0,1,.444.444v2.663a.444.444,0,0,1-.444.444H18.644a.444.444,0,0,1-.444-.444Zm-4.439,0a.444.444,0,0,1,.444-.444h2.663a.444.444,0,0,1,.444.444v2.663a.444.444,0,0,1-.444.444H14.205a.444.444,0,0,1-.444-.444Zm-4.439,0a.444.444,0,0,1,.444-.444H12.43a.444.444,0,0,1,.444.444v2.663a.444.444,0,0,1-.444.444H9.766a.444.444,0,0,1-.444-.444Zm-4.439,0a.444.444,0,0,1,.444-.444H7.99a.444.444,0,0,1,.444.444v2.663a.444.444,0,0,1-.444.444H5.327a.444.444,0,0,1-.444-.444Zm11.986,10.21v-.888h-7.1v.888H8.878v-4.883a.444.444,0,0,1,.444-.444h7.99a.444.444,0,0,1,.444.444v4.883Zm0,0" transform="translate(0 -196.458)" fill="#fff"/>
</svg>
