<svg id="business-and-finance" xmlns="http://www.w3.org/2000/svg" width="40.458" height="37.761" viewBox="0 0 40.458 37.761">
  <path id="Path_104" data-name="Path 104" d="M264,256h2.7v2.7H264Zm0,0" transform="translate(-241.748 -234.422)" fill="#fff"/>
  <path id="Path_105" data-name="Path 105" d="M24,160H60.412v2.7H24Zm0,0" transform="translate(-21.977 -146.514)" fill="#fff"/>
  <path id="Path_106" data-name="Path 106" d="M184,256h2.7v2.7H184Zm0,0" transform="translate(-168.491 -234.422)" fill="#fff"/>
  <path id="Path_107" data-name="Path 107" d="M64,128H93.669v1.349H64Zm0,0" transform="translate(-58.606 -117.211)" fill="#fff"/>
  <path id="Path_108" data-name="Path 108" d="M120,0h1.349V9.44H120Zm0,0" transform="translate(-109.885)" fill="#fff"/>
  <path id="Path_109" data-name="Path 109" d="M104,256h2.7v2.7H104Zm0,0" transform="translate(-95.234 -234.422)" fill="#fff"/>
  <path id="Path_110" data-name="Path 110" d="M176,384h10.789v1.349H176Zm0,0" transform="translate(-161.165 -351.633)" fill="#fff"/>
  <path id="Path_111" data-name="Path 111" d="M176,352h10.789v1.349H176Zm0,0" transform="translate(-161.165 -322.331)" fill="#fff"/>
  <path id="Path_112" data-name="Path 112" d="M344,256h2.7v2.7H344Zm0,0" transform="translate(-315.005 -234.422)" fill="#fff"/>
  <path id="Path_113" data-name="Path 113" d="M36.412,226.881V208H4.046v18.881H0v1.349H40.458v-1.349Zm-8.766-15.509a.674.674,0,0,1,.674-.674h4.046a.674.674,0,0,1,.674.674v4.046a.674.674,0,0,1-.674.674H28.321a.674.674,0,0,1-.674-.674Zm-6.743,0a.674.674,0,0,1,.674-.674h4.046a.674.674,0,0,1,.674.674v4.046a.674.674,0,0,1-.674.674H21.578a.674.674,0,0,1-.674-.674Zm-6.743,0a.674.674,0,0,1,.674-.674h4.046a.674.674,0,0,1,.674.674v4.046a.674.674,0,0,1-.674.674H14.835a.674.674,0,0,1-.674-.674Zm-6.743,0a.674.674,0,0,1,.674-.674h4.046a.674.674,0,0,1,.674.674v4.046a.674.674,0,0,1-.674.674H8.092a.674.674,0,0,1-.674-.674Zm18.206,15.509v-1.349H14.835v1.349H13.486v-7.417a.674.674,0,0,1,.674-.674H26.3a.674.674,0,0,1,.674.674v7.417Zm0,0" transform="translate(0 -190.468)" fill="#fff"/>
</svg>
