<svg xmlns="http://www.w3.org/2000/svg" width="17.576" height="22.438" viewBox="0 0 17.576 22.438">
  <path id="lista" d="M18.622,0H6.5V22.438H24.076V5.455ZM13.091,15.625l-1.87,1.5a.375.375,0,0,1-.5-.028l-.748-.748a.374.374,0,0,1,.529-.529l.511.511,1.608-1.287a.374.374,0,0,1,.468.584Zm0-4.114-1.87,1.5a.375.375,0,0,1-.5-.028l-.748-.748A.374.374,0,0,1,10.5,11.7l.511.511,1.608-1.287a.374.374,0,0,1,.468.584Zm0-4.114-1.87,1.5a.375.375,0,0,1-.5-.028l-.748-.748a.374.374,0,0,1,.529-.529l.511.511,1.608-1.287a.374.374,0,0,1,.468.584Zm6.872,9.431H13.979a.374.374,0,1,1,0-.748h5.983a.374.374,0,0,1,0,.748Zm0-4.114H13.979a.374.374,0,1,1,0-.748h5.983a.374.374,0,0,1,0,.748Zm0-4.114H13.979a.374.374,0,1,1,0-.748h5.983a.374.374,0,0,1,0,.748Zm-1.87-2.618V.748l5.236,5.236Z" transform="translate(-6.5)" fill="#bdc3c7"/>
</svg>
