<svg id="casa_1_" data-name="casa (1)" xmlns="http://www.w3.org/2000/svg" width="40" height="31.832" viewBox="0 0 40 31.832">
  <g id="Group_25" data-name="Group 25">
    <path id="Path_13" data-name="Path 13" d="M79.9,120.939l-14.18,11.937a.349.349,0,0,1-.012.075.352.352,0,0,0-.012.075v12.088a1.564,1.564,0,0,0,.469,1.133,1.5,1.5,0,0,0,1.11.479h9.47v-9.67H83.06v9.671h9.47a1.5,1.5,0,0,0,1.11-.479,1.564,1.564,0,0,0,.469-1.133V133.027a.361.361,0,0,0-.025-.151Z" transform="translate(-59.903 -114.894)" fill="#fff"/>
    <path id="Path_14" data-name="Path 14" d="M39.724,62.733,34.29,58.15V47.876a.79.79,0,0,0-.224-.579.764.764,0,0,0-.57-.227H28.733a.768.768,0,0,0-.571.227.792.792,0,0,0-.223.579v4.911l-6.054-5.137a3.042,3.042,0,0,0-3.771,0L.275,62.733A.735.735,0,0,0,0,63.275a.824.824,0,0,0,.174.592L1.714,65.73a.842.842,0,0,0,.521.277.912.912,0,0,0,.6-.176L20,51.3,37.168,65.831a.757.757,0,0,0,.521.176h.075a.843.843,0,0,0,.521-.277l1.538-1.863A.824.824,0,0,0,40,63.274.737.737,0,0,0,39.724,62.733Z" transform="translate(0.001 -46.994)" fill="#fff"/>
  </g>
</svg>
