<svg xmlns="http://www.w3.org/2000/svg" width="26.633" height="34" viewBox="0 0 26.633 34">
  <path id="lista" d="M24.868,0H6.5V34H33.133V8.265Zm-8.38,23.676-2.833,2.267A.568.568,0,0,1,12.9,25.9l-1.133-1.133a.567.567,0,0,1,.8-.8l.775.775,2.437-1.95a.567.567,0,0,1,.709.885Zm0-6.233-2.833,2.267a.568.568,0,0,1-.755-.042l-1.133-1.133a.567.567,0,1,1,.8-.8l.775.775,2.437-1.95a.567.567,0,0,1,.709.885Zm0-6.233-2.833,2.267a.568.568,0,0,1-.755-.042L11.765,12.3a.567.567,0,0,1,.8-.8l.775.775,2.437-1.95a.567.567,0,0,1,.709.885ZM26.9,25.5H17.833a.567.567,0,0,1,0-1.133H26.9a.567.567,0,1,1,0,1.133Zm0-6.233H17.833a.567.567,0,1,1,0-1.133H26.9a.567.567,0,1,1,0,1.133Zm0-6.233H17.833a.567.567,0,1,1,0-1.133H26.9a.567.567,0,1,1,0,1.133ZM24.067,9.067V1.133L32,9.067Z" transform="translate(-6.5)" fill="#fff"/>
</svg>
