<svg xmlns="http://www.w3.org/2000/svg" width="35.6" height="35.6" viewBox="0 0 35.6 35.6">
  <g id="key" transform="translate(-0.001 0)">
    <g id="Group_214" data-name="Group 214" transform="translate(0.001 0)">
      <path id="Path_117" data-name="Path 117" d="M32.246,3.354A11.467,11.467,0,0,0,13.227,15L.307,27.919A1.042,1.042,0,0,0,0,28.656v5.9A1.042,1.042,0,0,0,1.044,35.6h5.9a1.042,1.042,0,0,0,.737-.306l1.475-1.476a1.043,1.043,0,0,0,.3-.858l-.183-1.585,2.2-.207a1.041,1.041,0,0,0,.94-.94l.207-2.2,1.585.184a1.026,1.026,0,0,0,.814-.257,1.046,1.046,0,0,0,.349-.779V25.239h1.907a1.042,1.042,0,0,0,.737-.306l2.675-2.639A11.3,11.3,0,0,0,32.246,19.58,11.486,11.486,0,0,0,32.246,3.354ZM29.3,10.73a3.129,3.129,0,1,1,0-4.424A3.131,3.131,0,0,1,29.3,10.73Z" transform="translate(-0.001 0)" fill="#fff"/>
    </g>
  </g>
</svg>
