<svg id="icon" xmlns="http://www.w3.org/2000/svg" width="40" height="31.483" viewBox="0 0 40 31.483">
  <g id="Group_18" data-name="Group 18">
    <circle id="Ellipse_2" data-name="Ellipse 2" cx="2.514" cy="2.514" r="2.514" transform="translate(3.483 10.332)" fill="#fff"/>
    <path id="Path_8" data-name="Path 8" d="M11.994,10.895a6,6,0,1,0-6,6A6,6,0,0,0,11.994,10.895ZM6,15.472a4.577,4.577,0,1,1,4.577-4.577A4.582,4.582,0,0,1,6,15.472Z" transform="translate(0 1.95)" fill="#fff"/>
    <path id="Path_9" data-name="Path 9" d="M7.762,9.221a5.984,5.984,0,0,1-1.391,2.2,5.977,5.977,0,0,1-2.382,1.452l6.559,6.563H9.279v4.609H21.588V19.439H17.974Z" transform="translate(5.059 7.435)" fill="#fff"/>
    <path id="Path_10" data-name="Path 10" d="M33.1,8.237a.6.6,0,0,0-.852-.009l-5.476,5.354-4.031-2.115L21.684,6.86l2.7-3.664,7.261,2.43a.611.611,0,0,0,.331.016.588.588,0,0,0,.433-.4.6.6,0,0,0-.376-.763l-7.68-2.57a.594.594,0,0,0-.675.213L21.219,5.453l-2.027.464.285,1.241L5.294,10.415A5.983,5.983,0,0,1,6.42,12.766a5.949,5.949,0,0,1-.032,2.79l14.263-3.277.285,1.241,2.158-.5,0-.009L26.6,14.856a.6.6,0,0,0,.417.052.582.582,0,0,0,.285-.156l5.789-5.664A.6.6,0,0,0,33.1,8.237Z" transform="translate(6.73 -1.879)" fill="#fff"/>
  </g>
</svg>
