<svg id="Group_97" data-name="Group 97" xmlns="http://www.w3.org/2000/svg" width="20.892" height="20.892" viewBox="0 0 20.892 20.892">
  <g id="Group_96" data-name="Group 96">
    <path id="Path_57" data-name="Path 57" d="M19.857,17.34a17.513,17.513,0,0,0-5.106-1.951l.155-.212a.349.349,0,0,0,.056-.289L14.639,13.6A7.439,7.439,0,0,0,16.017,9.4V8.008h1.045a.348.348,0,0,0,0-.7h-.348V6.964a5.967,5.967,0,0,0-.638-2.7l-3.126.6a.348.348,0,0,1-.408-.407l.571-3a6.745,6.745,0,0,0-.926-.339V1.05A1.051,1.051,0,0,0,11.137,0H9.755A1.051,1.051,0,0,0,8.7,1.05v.074a6.763,6.763,0,0,0-.925.339l.571,3a.348.348,0,0,1-.408.407l-3.126-.6a5.967,5.967,0,0,0-.638,2.7v.348H3.83a.348.348,0,0,0,0,.7H4.875V9.4A7.442,7.442,0,0,0,6.253,13.6L5.93,14.888a.348.348,0,0,0,.056.289l.155.212A17.513,17.513,0,0,0,1.035,17.34,1.932,1.932,0,0,0,0,19.055v1.489a.348.348,0,0,0,.348.348H8.836l3.2,0c.006,0,.01,0,.016,0h8.487a.348.348,0,0,0,.348-.348V19.055A1.932,1.932,0,0,0,19.857,17.34ZM5.571,9.4V8.008h9.749V9.4a6.4,6.4,0,0,1-1.375,3.983.349.349,0,0,0-.039.033q-.18.23-.371.434l0,0c-.085.089-.173.169-.26.251a4.342,4.342,0,0,1-2.827,1.217A4.343,4.343,0,0,1,7.618,14.1c-.087-.082-.175-.162-.26-.251l0,0q-.191-.2-.372-.434a.348.348,0,0,0-.038-.033A6.4,6.4,0,0,1,5.571,9.4Zm1.074,5.5.156-.625,0,0a5.118,5.118,0,0,0,3.119,1.707h0L8.98,18.11Zm2.485,5.3.209-1.044h2.215l.088.441.12.6Zm2.782-2.085-.945-2.126h0a5.118,5.118,0,0,0,3.119-1.707l0,0,.156.625Z" transform="translate(0)" fill="#fff"/>
    <path id="Path_58" data-name="Path 58" d="M321.553,43.415l-.436,2.286,2.383-.458A6.082,6.082,0,0,0,321.553,43.415Z" transform="translate(-307.796 -41.614)" fill="#fff"/>
    <path id="Path_59" data-name="Path 59" d="M127.007,43.415a6.081,6.081,0,0,0-1.947,1.828l2.383.458Z" transform="translate(-119.872 -41.614)" fill="#fff"/>
  </g>
</svg>
