<svg id="engineer" xmlns="http://www.w3.org/2000/svg" width="34.18" height="34.18" viewBox="0 0 34.18 34.18">
  <g id="Group_97" data-name="Group 97" transform="translate(0)">
    <g id="Group_96" data-name="Group 96">
      <path id="Path_57" data-name="Path 57" d="M32.487,28.369a28.652,28.652,0,0,0-8.353-3.191l.253-.347a.571.571,0,0,0,.092-.473l-.529-2.115A12.17,12.17,0,0,0,26.2,15.381V13.1h1.709a.57.57,0,1,0,0-1.139h-.57v-.57A9.762,9.762,0,0,0,26.3,6.982l-5.115.983a.57.57,0,0,1-.667-.667l.934-4.9a11.035,11.035,0,0,0-1.514-.555V1.718A1.72,1.72,0,0,0,18.22,0H15.96a1.72,1.72,0,0,0-1.719,1.718v.121a11.065,11.065,0,0,0-1.514.555l.934,4.9a.57.57,0,0,1-.668.667L7.88,6.982a9.763,9.763,0,0,0-1.044,4.411v.57h-.57a.57.57,0,0,0,0,1.139H7.975v2.279a12.175,12.175,0,0,0,2.255,6.862L9.7,24.358a.569.569,0,0,0,.092.473l.253.347a28.651,28.651,0,0,0-8.353,3.191A3.161,3.161,0,0,0,0,31.174V33.61a.57.57,0,0,0,.57.57H14.456l5.243,0c.009,0,.016.005.026.005H33.61a.569.569,0,0,0,.57-.57V31.174A3.16,3.16,0,0,0,32.487,28.369ZM9.115,15.381V13.1H25.065v2.279a10.471,10.471,0,0,1-2.25,6.516.57.57,0,0,0-.063.054q-.294.376-.607.709l0,0c-.138.146-.283.277-.426.411a7.1,7.1,0,0,1-4.626,1.992,7.106,7.106,0,0,1-4.626-1.992c-.143-.134-.287-.264-.426-.411l0,0q-.313-.333-.608-.709a.57.57,0,0,0-.063-.054A10.471,10.471,0,0,1,9.115,15.381Zm1.757,8.994.256-1.022,0,0a8.373,8.373,0,0,0,5.1,2.793h0l-1.546,3.478Zm4.066,8.665.341-1.708H18.9l.145.722.2.983Zm4.552-3.412L17.943,26.15h0a8.373,8.373,0,0,0,5.1-2.793l0,0,.256,1.022Z" transform="translate(0)" fill="#fff"/>
      <path id="Path_58" data-name="Path 58" d="M321.83,43.415l-.713,3.74,3.9-.75A9.95,9.95,0,0,0,321.83,43.415Z" transform="translate(-299.323 -40.468)" fill="#fff"/>
      <path id="Path_59" data-name="Path 59" d="M128.246,43.415a9.949,9.949,0,0,0-3.186,2.991l3.9.75Z" transform="translate(-116.572 -40.468)" fill="#fff"/>
    </g>
  </g>
</svg>
