<svg xmlns="http://www.w3.org/2000/svg" xmlns:xlink="http://www.w3.org/1999/xlink" width="61.171" height="61.171" viewBox="0 0 61.171 61.171">
  <defs>
    <filter id="Path_20" x="0" y="0" width="61.171" height="61.171" filterUnits="userSpaceOnUse">
      <feOffset dy="3" input="SourceAlpha"/>
      <feGaussianBlur stdDeviation="3" result="blur"/>
      <feFlood flood-opacity="0.161"/>
      <feComposite operator="in" in2="blur"/>
      <feComposite in="SourceGraphic"/>
    </filter>
  </defs>
  <g id="icon_1_" data-name="icon (1)" transform="translate(9 6)">
    <g transform="matrix(1, 0, 0, 1, -9, -6)" filter="url(#Path_20)">
      <path id="Path_20-2" data-name="Path 20" d="M21.586,0A21.586,21.586,0,1,0,43.171,21.586,21.586,21.586,0,0,0,21.586,0Zm0,35.364a2.823,2.823,0,0,1-2.842-2.986,2.823,2.823,0,0,1,2.842-2.986,2.771,2.771,0,0,1,2.842,2.986A2.8,2.8,0,0,1,21.586,35.364Zm1.119-11.4c-.43,1.466-1.784,1.491-2.236,0-.52-1.72-2.367-8.247-2.367-12.487,0-5.594,7-5.621,7,0C25.1,15.739,23.152,22.436,22.7,23.962Z" transform="translate(9 6)" fill="#fff"/>
    </g>
  </g>
</svg>
